<svg width="32" height="32" viewBox="0 0 32 32" fill="none" xmlns="http://www.w3.org/2000/svg">
<g clip-path="url(#clip0_1_19)">
<path d="M28.627 16.0001L31.707 12.3041C31.9024 12.0696 32.0001 11.784 32.0001 11.4493C32.0001 11.1147 31.9024 10.8291 31.707 10.5946L30.2825 8.88515C30.0871 8.65068 29.8491 8.53345 29.5702 8.53345C29.2913 8.53345 29.0533 8.65068 28.8579 8.88515L25.7779 12.5812L22.6979 8.88515C22.5025 8.65068 22.2645 8.53345 21.9856 8.53345C21.7067 8.53345 21.4687 8.65068 21.2733 8.88515L19.8487 10.5946C19.6534 10.8291 19.5557 11.1147 19.5557 11.4493C19.5557 11.784 19.6534 12.0696 19.8487 12.3041L22.9288 16.0001L19.8487 19.6961C19.6534 19.9306 19.5557 20.2162 19.5557 20.5509C19.5557 20.8855 19.6534 21.1711 19.8487 21.4056L21.2733 23.1151C21.4687 23.3495 21.7067 23.4668 21.9856 23.4668C22.2645 23.4668 22.5025 23.3495 22.6979 23.1151L25.7779 19.419L28.8579 23.1151C29.0533 23.3495 29.2904 23.4668 29.5702 23.4668C29.85 23.4668 30.0871 23.3495 30.2825 23.1151L31.707 21.4056C31.9024 21.1711 32.0001 20.8855 32.0001 20.5509C32.0001 20.2162 31.9024 19.9306 31.707 19.6961L28.627 16.0001V16.0001Z" fill="white"/>
<path d="M16.2957 0C15.8948 0 15.5471 0.166799 15.2537 0.500398L7.54602 9.26321H1.4821C1.08027 9.26321 0.733576 9.43001 0.440146 9.76361C0.146715 10.0972 0 10.4924 0 10.9482V21.0518C0 21.5076 0.146715 21.9028 0.440146 22.2364C0.733576 22.57 1.08121 22.7368 1.4821 22.7368H7.54602L15.2537 31.4996C15.5471 31.8332 15.8938 32 16.2957 32C16.6975 32 17.0442 31.8332 17.3376 31.4996C17.6311 31.166 17.7778 30.7718 17.7778 30.315V1.68499C17.7778 1.22922 17.6311 0.833997 17.3386 0.500398C17.0461 0.166799 16.6984 0 16.2966 0H16.2957Z" fill="white"/>
</g>
<defs>
<clipPath id="clip0_1_19">
<rect width="32" height="32" fill="white"/>
</clipPath>
</defs>
</svg>
