<svg width="32" height="32" viewBox="0 0 32 32" fill="none" xmlns="http://www.w3.org/2000/svg">
<g clip-path="url(#clip0_60813_6)">
<path d="M30.4707 1.53073C29.5642 0.625656 28.3356 0.11731 27.0547 0.11731C25.7737 0.11731 24.5451 0.625656 23.6387 1.53073L1.95335 23.2161C1.33236 23.8336 0.83997 24.5681 0.504684 25.3771C0.169399 26.1862 -0.00213064 27.0536 1.9975e-05 27.9294V30.6667C1.9975e-05 31.0204 0.140496 31.3595 0.390544 31.6095C0.640593 31.8596 0.979731 32.0001 1.33335 32.0001H4.07069C4.94637 32.0025 5.81385 31.8313 6.62289 31.4962C7.43194 31.1612 8.16649 30.6689 8.78402 30.0481L30.4707 8.36139C31.3754 7.45499 31.8834 6.22668 31.8834 4.94606C31.8834 3.66544 31.3754 2.43713 30.4707 1.53073ZM6.89869 28.1627C6.14669 28.9097 5.13064 29.3303 4.07069 29.3334H2.66669V27.9294C2.66534 27.4039 2.76823 26.8834 2.9694 26.398C3.17058 25.9126 3.46604 25.4719 3.83869 25.1014L20.296 8.64406L23.3627 11.7107L6.89869 28.1627ZM28.584 6.47606L25.2427 9.81873L22.176 6.75873L25.5187 3.41606C25.72 3.21514 25.959 3.05584 26.2219 2.94727C26.4849 2.8387 26.7666 2.78298 27.051 2.78329C27.3355 2.7836 27.6171 2.83993 27.8798 2.94908C28.1425 3.05822 28.3811 3.21803 28.582 3.41939C28.7829 3.62075 28.9422 3.85972 29.0508 4.12264C29.1594 4.38556 29.2151 4.66729 29.2148 4.95175C29.2145 5.23621 29.1581 5.51782 29.049 5.7805C28.9399 6.04319 28.78 6.2818 28.5787 6.48273L28.584 6.47606Z" fill="black"/>
</g>
<defs>
<clipPath id="clip0_60813_6">
<rect width="32" height="32" fill="white"/>
</clipPath>
</defs>
</svg>
