<svg width="64" height="64" viewBox="0 0 64 64" fill="none" xmlns="http://www.w3.org/2000/svg">
<path d="M47.2 24.3938C47.2 23.7063 46.6375 23.1438 45.95 23.1438H17.9062C17.2188 23.1438 16.6562 23.7063 16.6562 24.3938C16.6562 25.0813 17.2188 25.6438 17.9062 25.6438H45.95C46.6375 25.6438 47.2 25.0813 47.2 24.3938ZM42.4688 32.9438C42.4688 32.2563 41.9062 31.6938 41.2188 31.6938H17.9062C17.2188 31.6938 16.6562 32.2563 16.6562 32.9438C16.6562 33.6313 17.2188 34.1938 17.9062 34.1938H41.2125C41.9063 34.1938 42.4688 33.6313 42.4688 32.9438ZM17.9062 40.35C17.2188 40.35 16.6562 40.9125 16.6562 41.6C16.6562 42.2875 17.2188 42.85 17.9062 42.85H33.0625C33.75 42.85 34.3125 42.2875 34.3125 41.6C34.3125 40.9125 33.75 40.35 33.0625 40.35H17.9062Z" fill="#666666"/>
<path d="M21.9069 61.1492H11.8579V2.85078H52.7096V23.7327C52.7096 24.5167 53.351 25.1581 54.135 25.1581C54.9189 25.1581 55.5604 24.5167 55.5604 23.7327V2.26637C55.5604 1.01915 54.5412 0 53.2869 0H11.2735C10.0192 0 9 1.01915 9 2.26637V61.7336C9 62.9808 10.0192 64 11.2735 64H21.8998C22.6837 64 23.3252 63.3586 23.3252 62.5746C23.3252 61.7906 22.6909 61.1492 21.9069 61.1492ZM54.135 51.8913C53.351 51.8913 52.7096 52.5327 52.7096 53.3167V61.1421H44.9626C44.1786 61.1421 43.5372 61.7835 43.5372 62.5675C43.5372 63.3515 44.1786 63.9929 44.9626 63.9929H53.294C54.5483 63.9929 55.5675 62.9737 55.5675 61.7194V53.3096C55.5604 52.5327 54.9261 51.8913 54.135 51.8913ZM62.9581 33.4824L60.0788 30.653C59.751 30.3465 59.3733 30.1114 58.9599 29.9403C58.5466 29.7693 58.1189 29.6837 57.6984 29.6837C57.2708 29.6837 56.8432 29.7693 56.4156 29.9403C55.988 30.1114 55.6245 30.3465 55.3109 30.653L37.1229 48.4633L44.7203 56.0606L62.951 38.1933C63.6067 37.5448 63.9417 36.7608 63.9417 35.8343C63.9417 34.9149 63.6138 34.131 62.9581 33.4824ZM32.0913 53.3951L29.3474 62.3893L28.9127 63.7292L39.8811 60.8L42.6321 58.1131L35.0347 50.5158L32.0913 53.3951Z" fill="#666666"/>
<path d="M45.4064 18.65H18.5939C17.6689 18.65 16.9189 17.9 16.9189 16.975V11.8875C16.9189 10.9625 17.6689 10.2125 18.5939 10.2125H45.4064C46.3314 10.2125 47.0814 10.9625 47.0814 11.8875V16.975C47.0814 17.9 46.3314 18.65 45.4064 18.65Z" fill="#CCCCCC"/>
</svg>
