<svg width="32" height="32" viewBox="0 0 32 32" fill="none" xmlns="http://www.w3.org/2000/svg">
<g clip-path="url(#clip0_60813_2)">
<path d="M28.0003 5.33333H23.867C23.5575 3.82855 22.7388 2.47646 21.5487 1.50496C20.3586 0.533453 18.8699 0.00193937 17.3337 0L14.667 0C13.1307 0.00193937 11.6421 0.533453 10.452 1.50496C9.2619 2.47646 8.44312 3.82855 8.13366 5.33333H4.00033C3.6467 5.33333 3.30756 5.47381 3.05752 5.72386C2.80747 5.97391 2.66699 6.31304 2.66699 6.66667C2.66699 7.02029 2.80747 7.35943 3.05752 7.60948C3.30756 7.85952 3.6467 8 4.00033 8H5.33366V25.3333C5.33578 27.1008 6.03883 28.7953 7.28862 30.045C8.5384 31.2948 10.2329 31.9979 12.0003 32H20.0003C21.7678 31.9979 23.4623 31.2948 24.712 30.045C25.9618 28.7953 26.6649 27.1008 26.667 25.3333V8H28.0003C28.3539 8 28.6931 7.85952 28.9431 7.60948C29.1932 7.35943 29.3337 7.02029 29.3337 6.66667C29.3337 6.31304 29.1932 5.97391 28.9431 5.72386C28.6931 5.47381 28.3539 5.33333 28.0003 5.33333ZM14.667 2.66667H17.3337C18.1607 2.66768 18.9672 2.9245 19.6425 3.40192C20.3178 3.87935 20.8289 4.55399 21.1057 5.33333H10.895C11.1718 4.55399 11.6829 3.87935 12.3582 3.40192C13.0335 2.9245 13.84 2.66768 14.667 2.66667ZM24.0003 25.3333C24.0003 26.3942 23.5789 27.4116 22.8288 28.1618C22.0786 28.9119 21.0612 29.3333 20.0003 29.3333H12.0003C10.9395 29.3333 9.92204 28.9119 9.1719 28.1618C8.42175 27.4116 8.00033 26.3942 8.00033 25.3333V8H24.0003V25.3333Z" fill="black"/>
<path d="M13.3333 24C13.687 24 14.0261 23.8596 14.2761 23.6095C14.5262 23.3595 14.6667 23.0203 14.6667 22.6667V14.6667C14.6667 14.3131 14.5262 13.9739 14.2761 13.7239C14.0261 13.4739 13.687 13.3334 13.3333 13.3334C12.9797 13.3334 12.6406 13.4739 12.3905 13.7239C12.1405 13.9739 12 14.3131 12 14.6667V22.6667C12 23.0203 12.1405 23.3595 12.3905 23.6095C12.6406 23.8596 12.9797 24 13.3333 24Z" fill="black"/>
<path d="M18.6663 24C19.02 24 19.3591 23.8596 19.6092 23.6095C19.8592 23.3595 19.9997 23.0203 19.9997 22.6667V14.6667C19.9997 14.3131 19.8592 13.9739 19.6092 13.7239C19.3591 13.4739 19.02 13.3334 18.6663 13.3334C18.3127 13.3334 17.9736 13.4739 17.7235 13.7239C17.4735 13.9739 17.333 14.3131 17.333 14.6667V22.6667C17.333 23.0203 17.4735 23.3595 17.7235 23.6095C17.9736 23.8596 18.3127 24 18.6663 24Z" fill="black"/>
</g>
<defs>
<clipPath id="clip0_60813_2">
<rect width="32" height="32" fill="white"/>
</clipPath>
</defs>
</svg>
