<svg width="32" height="32" viewBox="0 0 32 32" fill="none" xmlns="http://www.w3.org/2000/svg">
<g clip-path="url(#clip0_1_34)">
<path d="M16.2957 0C15.8948 0 15.5471 0.166799 15.2537 0.500398L7.54602 9.26321H1.4821C1.08027 9.26321 0.733576 9.43001 0.440146 9.76361C0.146715 10.0972 0 10.4924 0 10.9482V21.0518C0 21.5076 0.146715 21.9028 0.440146 22.2364C0.733576 22.57 1.08121 22.7368 1.4821 22.7368H7.54602L15.2537 31.4996C15.5471 31.8332 15.8938 32 16.2957 32C16.6975 32 17.0442 31.8332 17.3376 31.4996C17.6311 31.166 17.7778 30.7718 17.7778 30.315V1.68499C17.7778 1.22922 17.6311 0.833997 17.3386 0.500398C17.0461 0.166799 16.6975 0 16.2957 0Z" fill="white"/>
<path d="M24.9246 19.7493C25.5486 18.5962 25.8606 17.3503 25.8606 16.0106C25.8606 14.6709 25.5486 13.4207 24.9246 12.2581C24.3006 11.0954 23.4757 10.2762 22.4473 9.80048C22.3006 9.71301 22.1166 9.66821 21.8971 9.66821C21.5157 9.66821 21.1851 9.83141 20.906 10.1567C20.6269 10.4842 20.4873 10.8831 20.4873 11.3589C20.4873 11.729 20.5753 12.0415 20.7522 12.2965C20.9291 12.5514 21.1406 12.7722 21.3904 12.9567C21.6393 13.1413 21.8891 13.3439 22.1389 13.5647C22.3886 13.7855 22.6011 14.097 22.7771 14.5023C22.9531 14.9077 23.0411 15.4101 23.0411 16.0085C23.0411 16.6069 22.9531 17.1093 22.7771 17.5146C22.6011 17.9199 22.3886 18.2325 22.1389 18.4522C21.8891 18.6719 21.6393 18.8757 21.3904 19.0602C21.1406 19.2447 20.9282 19.4655 20.7522 19.7205C20.5762 19.9754 20.4873 20.289 20.4873 20.6581C20.4873 21.1338 20.6277 21.5338 20.906 21.8602C21.1851 22.1845 21.5149 22.3498 21.8971 22.3498C22.1166 22.3498 22.3006 22.3061 22.4473 22.2175C23.4749 21.7237 24.3006 20.9002 24.9246 19.7461V19.7493Z" fill="white"/>
<path d="M30.1108 23.5955C31.3704 21.276 32.0002 18.7427 32.0002 15.9989C32.0002 13.2561 31.3704 10.725 30.1108 8.40222C28.8512 6.08275 27.1844 4.39171 25.1111 3.33454C24.9191 3.24554 24.7262 3.19995 24.5333 3.19995C24.1484 3.19995 23.8147 3.37036 23.533 3.71117C23.2513 4.05198 23.1113 4.45466 23.1113 4.92138C23.1113 5.62037 23.4002 6.14896 23.978 6.50822C24.8069 7.02812 25.3703 7.42212 25.6664 7.69129C26.7627 8.65946 27.6186 9.87293 28.2331 11.3339C28.8477 12.7948 29.1554 14.3491 29.1554 16C29.1554 17.6487 28.8477 19.204 28.2331 20.666C27.6186 22.127 26.7627 23.3404 25.6664 24.3086C25.3703 24.5778 24.8069 24.9718 23.978 25.4917C23.4002 25.8509 23.1113 26.3784 23.1113 27.0785C23.1113 27.5442 23.2522 27.9479 23.533 28.2887C23.8138 28.6295 24.1547 28.7999 24.5548 28.7999C24.7325 28.7999 24.9182 28.7544 25.1102 28.6654C27.1835 27.6071 28.8512 25.9182 30.1099 23.5966L30.1108 23.5955Z" fill="white"/>
</g>
<defs>
<clipPath id="clip0_1_34">
<rect width="32" height="32" fill="white"/>
</clipPath>
</defs>
</svg>
